<?xml version="1.0" encoding="utf-8"?>
<!-- Generator: Adobe Illustrator 25.2.1, SVG Export Plug-In . SVG Version: 6.00 Build 0)  -->
<svg version="1.1" id="图层_1" xmlns="http://www.w3.org/2000/svg" xmlns:xlink="http://www.w3.org/1999/xlink" x="0px" y="0px"
	 viewBox="0 0 346 56" style="enable-background:new 0 0 346 56;" xml:space="preserve">
<style type="text/css">
	.st0{fill:#1D2088;}
</style>
<path class="st0" d="M60.1,13.4v24.8h15.7V42h-20V13.4H60.1z"/>
<path class="st0" d="M89.8,13.4c4.6,0,8.1,1.3,10.5,3.9c2.2,2.4,3.4,5.9,3.4,10.4c0,4.5-1.2,8-3.4,10.4c-2.4,2.6-5.9,3.8-10.5,3.8
	H79.4V13.4H89.8z M83.8,38.3H89c3.6,0,6.3-0.9,8-2.6c1.6-1.7,2.5-4.4,2.5-8c0-3.7-0.8-6.3-2.4-8c-1.7-1.7-4.3-2.6-7.9-2.6h-5.2V38.3
	z"/>
<path class="st0" d="M128.8,15.5c2.1,1.7,3.4,4,3.8,6.9h-4.2c-0.5-1.9-1.4-3.4-2.8-4.3c-1.4-0.9-3-1.4-5.1-1.4c-3.1,0-5.4,1-7,3.2
	c-1.5,1.9-2.2,4.6-2.2,7.9c0,3.4,0.7,6.1,2.2,8c1.5,2,3.9,3,7.1,3c2.1,0,3.8-0.5,5.2-1.6c1.4-1.1,2.4-2.8,3-5h4.2
	c-0.6,3.3-2.1,5.9-4.5,7.8c-2.2,1.8-4.8,2.6-7.9,2.6c-4.7,0-8.2-1.5-10.6-4.5c-2.1-2.6-3.1-6-3.1-10.3c0-4.2,1-7.7,3.2-10.4
	c2.4-3,5.8-4.5,10.4-4.5C123.8,12.9,126.6,13.7,128.8,15.5z"/>
<path class="st0" d="M142,23.1V9.3h3.6v13.8h4.5v3.5h-4.5v1.2c1.9,1.8,3.8,3.9,5.7,6.1l-2.2,3.2c-1.4-2.4-2.6-4.4-3.6-6v15H142v-14
	c-1.2,3.1-2.8,6-4.6,8.6l-1.6-4.1c2.7-2.9,4.8-6.2,6-10h-5.2v-3.5H142z M140.8,20.9l-2.5,0.6c-0.5-2.8-1-5.5-1.7-8.1l2.7-0.9
	C139.9,15,140.4,17.8,140.8,20.9z M151,12.3c-0.2,3.4-0.8,6.3-1.8,8.9l-2.4-0.8c0.7-2.4,1.2-5.3,1.4-8.5L151,12.3z M164,9.2v2.4h8
	v3.1h-8v2h6.9v3H164v2h9v3.2h-21.7v-3.2h9.1v-2h-7.1v-3h7.1v-2H152v-3.1h8.3V9.2H164z M156.6,46h-3.6V26.6h18v15.6
	c0,2.4-1.2,3.7-3.7,3.7h-2.8l-0.9-3.3l2.6,0.2c0.8,0,1.2-0.4,1.2-1.3v-1.6h-10.8V46z M167.4,29.6h-10.8v2.3h10.8V29.6z M156.6,37
	h10.8v-2.2h-10.8V37z"/>
<path class="st0" d="M198.6,23.3l2-3c4.5,2,8.6,4.5,12.2,7.4l-2.2,3.3c-1-0.8-2-1.6-2.8-2.2v12.6h4.6V45h-35.6v-3.6h4.9V29.2
	c-1.2,0.6-2.4,1.2-3.6,1.7l-1.6-3.5c4.9-1.8,9-4.2,12.1-7.2l2.4,2.7c-2.3,2.2-5,4.1-8,5.7h24.7C204.6,26.5,201.6,24.7,198.6,23.3z
	 M187,15.9c-1.2-1.6-2.6-3.2-4.3-5l3.1-2c2.1,2.2,3.8,4,4.9,5.6l-1.8,1.3h9.7c1.5-2.2,2.8-4.4,3.9-6.8l3.7,1.3c-1,2.1-2.2,4-3.4,5.6
	h8.9v3.7h-34v-3.7H187z M189.2,41.3v-9.1h-3.8v9.1H189.2z M196.7,41.3v-9.1h-4v9.1H196.7z M204.1,41.3v-9.1h-3.9v9.1H204.1z"/>
<path class="st0" d="M227.1,28.1c-0.2,0.7-0.4,1.3-0.7,2h8.2v3.1c-0.7,2.4-2,4.5-3.8,6.4c1.6,0.7,3.2,1.5,4.8,2.4l-2,3
	c-1.6-1-3.5-1.9-5.7-3c-2.6,1.7-6,3.1-9.9,4.1l-1.8-3.1c3-0.7,5.6-1.6,7.8-2.7c-1.6-0.7-3.4-1.4-5.3-2.2c1-1.6,1.8-3.2,2.6-4.7H217
	v-3.2h5.6c0.3-0.8,0.6-1.6,0.9-2.4L227.1,28.1z M224.7,16.6V9.2h3.5v7.4h6.9v3.3h-6.9v0.3c2,1,4,2.2,6,3.5l-1.9,3
	c-1.6-1.5-3-2.7-4.1-3.6v4.4h-3.5V21c-1.4,2.7-3.6,5.1-6.6,7.2l-1.9-3.1c2.9-1.6,5-3.3,6.2-5.2h-5.2v-3.3H224.7z M223.1,14.6
	l-2.7,1.2c-0.8-1.9-1.7-3.6-2.6-5.1l3-1C221.7,11.2,222.4,12.8,223.1,14.6z M231.2,33.3H225c-0.6,1.1-1.2,2.2-1.8,3.2
	c1.4,0.5,2.8,1,4.1,1.5C229,36.7,230.3,35.1,231.2,33.3z M235,10.8c-0.8,1.7-1.8,3.3-3,4.9l-2.6-1.4c1.2-1.6,2.1-3.3,2.8-4.9
	L235,10.8z M238.2,25.8c-0.6,1-1.1,2-1.7,2.8l-2.3-2.8c2.4-4.1,4-9.6,4.9-16.6l3.6,0.6c-0.3,1.8-0.6,3.6-0.9,5.2h10.6v3.6h-2.6
	c-0.2,6.5-1.4,12-3.6,16.7c1.9,3,4.2,5.7,6.9,8.1l-2.4,2.8c-2.5-2.2-4.6-4.6-6.5-7.3c-1.9,2.9-4.2,5.3-7,7.3l-2-3.2
	c2.9-1.9,5.2-4.4,7-7.5C240.6,32.6,239.2,29.3,238.2,25.8z M238.5,25.2l2.6-1.4c0.8,2.8,1.8,5.4,3.1,7.8c1.4-3.7,2.2-8,2.3-12.9H241
	C240.2,21.1,239.4,23.3,238.5,25.2z"/>
<path class="st0" d="M285.4,20.2v3.5c-2.5,1.8-5.3,3.5-8.4,5.2v2h15.4v3.7H277v7.5c0,2.5-1.3,3.8-4,3.8h-4.9l-0.9-3.4
	c1.4,0,2.9,0.1,4.6,0.1c1,0,1.4-0.6,1.4-1.8v-6.2h-16.4V31h16.4v-3.5c2.8-1.5,5-2.7,6.6-3.7h-16.1v-3.5H285.4z M291.8,22.4h-3.8
	v-5.8h-26.7v5.8h-3.8v-9.4h15.3c-0.6-1.3-1.1-2.5-1.8-3.6l4.4-0.7c0.6,1.3,1.1,2.7,1.6,4.3h14.9V22.4z"/>
<path class="st0" d="M332.7,22.3v3.8h-19c-3.4,6.9-6.4,11.8-9,14.8c6.6-0.4,13.1-1.1,19.6-2c-1.3-2.3-2.7-4.6-4.2-7l3-1.9
	c3.6,5.4,6.4,10.1,8.4,14.1l-3.4,2.4c-0.6-1.4-1.3-2.7-2-4.1c-8,1.1-16.8,2-26.2,2.6l-1-3.9c0.4-0.1,0.7-0.2,0.9-0.4
	c2.4-1.8,5.6-6.7,9.6-14.6h-12.9v-3.8H332.7z M329.1,11.2v3.7h-28.7v-3.7H329.1z"/>
<path id="形状" class="st0" d="M23.5,40.4c0-0.3-0.1-0.6-0.2-0.7c-0.2-0.1-0.4-0.2-0.7-0.2h-1.1v1.9h0.9c0.4,0,0.7-0.1,0.9-0.2
	C23.4,41,23.5,40.8,23.5,40.4z M17.5,42.2c-0.3-0.2-0.7-0.2-1.2-0.2h-0.8v1.7c0,0.3,0,0.3,0,0.3s0,0,0.3,0h0.5c0.6,0,1-0.1,1.2-0.3
	c0.2-0.2,0.4-0.4,0.4-0.8C17.9,42.5,17.7,42.3,17.5,42.2z M17.3,41.1c0.2-0.1,0.3-0.4,0.3-0.8c0-0.3-0.1-0.5-0.3-0.6
	c-0.2-0.1-0.6-0.2-1-0.2h-1v1.8h0.8C16.7,41.3,17.1,41.3,17.3,41.1z M27.1,42h1.2l-0.6-2.2L27.1,42z M4.8,42h1.2l-0.6-2.2L4.8,42z
	 M2,8v40h40V8H2z M8.1,44.6H6.2v-0.5h0.1c0.2,0,0.3,0,0.3,0c0,0,0,0,0-0.1c0-0.1,0-0.2-0.1-0.4l-0.3-1H4.7c-0.1,0.3-0.3,1.1-0.4,1.1
	c0,0.1,0,0.2,0,0.2c0,0.1,0,0.1,0,0.1c0,0,0.1,0,0.3,0h0.1v0.5H3.1v-0.5h0.1c0.1,0,0.2,0,0.3-0.1c0.1,0,0.1-0.2,0.2-0.5l1.5-4.9
	l0-0.1H6l0,0.1l1.5,4.9c0.1,0.2,0.1,0.3,0.2,0.4c0.1,0.1,0.1,0.1,0.2,0.1h0.2V44.6L8.1,44.6z M10.2,44.5c-0.1,0.1-0.2,0.2-0.4,0.2
	c-0.1,0-0.3-0.1-0.4-0.2c-0.1-0.1-0.2-0.3-0.2-0.4c0-0.2,0.1-0.3,0.2-0.4c0.1-0.1,0.2-0.2,0.4-0.2s0.3,0.1,0.4,0.2
	c0.1,0.1,0.2,0.3,0.2,0.4C10.3,44.2,10.3,44.4,10.2,44.5z M16.5,44.6H14v-0.5h0.3c0.1,0,0.2,0,0.3-0.1c0,0,0.1-0.2,0.1-0.3v-3.9
	c0-0.3-0.1-0.4-0.1-0.4c0,0-0.1,0-0.3,0H14v-0.5h2.4c0.8,0,1.4,0.1,1.7,0.3c0.4,0.2,0.5,0.6,0.5,1.1c0,0.3-0.1,0.6-0.3,0.8
	c-0.1,0.2-0.3,0.3-0.5,0.4c0.7,0.2,1,0.7,1,1.4C18.8,44,18,44.6,16.5,44.6z M24.9,44.6h-1.3l0,0L21.8,42h-0.5v1.6
	c0,0.3,0,0.4,0.1,0.4c0,0,0.1,0.1,0.3,0.1H22v0.5h-2.1v-0.5h0.3c0.2,0,0.3,0,0.3-0.1c0,0,0.1-0.1,0.1-0.5v-3.6c0-0.2,0-0.3-0.1-0.4
	c0-0.1-0.2-0.1-0.2-0.1h-0.3v-0.5h2.6c1.3,0,1.9,0.5,1.9,1.5c0,0.5-0.2,0.9-0.5,1.2c-0.3,0.2-0.7,0.4-1.1,0.4l1.2,1.6
	c0.1,0.2,0.2,0.3,0.3,0.4c0.1,0.1,0.2,0.1,0.3,0.1h0.2L24.9,44.6L24.9,44.6z M30.3,44.6h-1.9v-0.5h0.1c0.2,0,0.3,0,0.3,0
	c0,0,0,0,0-0.1c0-0.1,0-0.2-0.1-0.4l-0.3-1h-1.6l-0.3,1.1c-0.1,0.1-0.1,0.2-0.1,0.2c0,0.1,0,0.1,0,0.1c0,0,0.1,0,0.3,0H27v0.5h-1.6
	v-0.5h0.1c0.2,0,0.2,0,0.3-0.1c0,0,0.1-0.2,0.2-0.5l1.5-4.9l0-0.1h0.7l0,0.1l1.5,4.9c0.1,0.2,0.1,0.3,0.2,0.4
	c0.1,0.1,0.1,0.1,0.2,0.1h0.2L30.3,44.6L30.3,44.6z M34.2,39.4h-0.2c-0.1,0-0.6,0-0.7,0.1c0,0-0.1,0.1-0.1,0.5v3.6
	c0,0.3,0,0.4,0.1,0.4c0,0,0.5,0.1,0.7,0.1h0.2v0.5h-2.8v-0.5H32c0.2,0,0.3,0,0.3-0.1c0,0,0.1-0.1,0.1-0.4v-3.6c0-0.3,0-0.4-0.1-0.4
	c0,0-0.1-0.1-0.3-0.1h-0.6v-0.5h2.8V39.4L34.2,39.4z M40.1,39.4h-0.2c-0.2,0-0.3,0-0.3,0.1c0,0.1-0.1,0.2-0.1,0.5v4.6h-0.6l0,0
	l-2.4-4.6v3.6c0,0.3,0,0.4,0.1,0.5c0,0,0.1,0.1,0.4,0.1h0.1v0.5h-1.8v-0.5h0.2c0.2,0,0.3,0,0.3-0.1c0,0,0.1-0.2,0.1-0.5V40
	c0-0.2,0-0.3,0-0.4c0-0.1-0.1-0.1-0.1-0.1c0,0-0.1,0-0.3,0h-0.2v-0.5h1.6l0,0.1l2,3.8V40c0-0.3,0-0.4-0.1-0.5
	c-0.1-0.1-0.2-0.1-0.3-0.1h-0.2v-0.5h1.8L40.1,39.4L40.1,39.4z M2.9,36.6L21,9.1l20.2,27.5H2.9z M15.9,27.2c0,3.2,2.6,5.7,5.8,5.7
	s5.8-2.6,5.8-5.7c0-3.2-2.6-5.7-5.8-5.7C18.4,21.4,15.9,24,15.9,27.2z"/>
</svg>
